<svg id="visual" viewBox="0 0 300 900" width="300" height="900" xmlns="http://www.w3.org/2000/svg" xmlns:xlink="http://www.w3.org/1999/xlink" version="1.1"><path d="M78 0L67.2 13.7C56.3 27.3 34.7 54.7 29 82C23.3 109.3 33.7 136.7 41.5 163.8C49.3 191 54.7 218 59.3 245.2C64 272.3 68 299.7 59.8 327C51.7 354.3 31.3 381.7 20.5 409C9.7 436.3 8.3 463.7 14.7 491C21 518.3 35 545.7 36.3 573C37.7 600.3 26.3 627.7 20.5 654.8C14.7 682 14.3 709 12.2 736.2C10 763.3 6 790.7 13.8 818C21.7 845.3 41.3 872.7 51.2 886.3L61 900L0 900L0 886.3C0 872.7 0 845.3 0 818C0 790.7 0 763.3 0 736.2C0 709 0 682 0 654.8C0 627.7 0 600.3 0 573C0 545.7 0 518.3 0 491C0 463.7 0 436.3 0 409C0 381.7 0 354.3 0 327C0 299.7 0 272.3 0 245.2C0 218 0 191 0 163.8C0 136.7 0 109.3 0 82C0 54.7 0 27.3 0 13.7L0 0Z" fill="#001b4e" stroke-linecap="round" stroke-linejoin="miter"></path></svg>