<svg id="visual" viewBox="0 0 300 900" width="300" height="900" xmlns="http://www.w3.org/2000/svg" xmlns:xlink="http://www.w3.org/1999/xlink" version="1.1"><path d="M82 0L78.2 30C74.3 60 66.7 120 73.5 180C80.3 240 101.7 300 111.2 360C120.7 420 118.3 480 111 540C103.7 600 91.3 660 88.5 720C85.7 780 92.3 840 95.7 870L99 900L0 900L0 870C0 840 0 780 0 720C0 660 0 600 0 540C0 480 0 420 0 360C0 300 0 240 0 180C0 120 0 60 0 30L0 0Z" fill="#0366fb" stroke-linecap="round" stroke-linejoin="miter"></path></svg>