<svg id="visual" viewBox="0 0 300 900" width="300" height="900" xmlns="http://www.w3.org/2000/svg" xmlns:xlink="http://www.w3.org/1999/xlink" version="1.1"><path d="M47 0L44.3 11.5C41.7 23 36.3 46 34.8 69C33.3 92 35.7 115 33.3 138.2C31 161.3 24 184.7 22 207.8C20 231 23 254 27 277C31 300 36 323 35.8 346C35.7 369 30.3 392 26.3 415.2C22.3 438.3 19.7 461.7 21.3 484.8C23 508 29 531 31 554C33 577 31 600 29.2 623C27.3 646 25.7 669 28.3 692.2C31 715.3 38 738.7 41.7 761.8C45.3 785 45.7 808 45.2 831C44.7 854 43.3 877 42.7 888.5L42 900L0 900L0 888.5C0 877 0 854 0 831C0 808 0 785 0 761.8C0 738.7 0 715.3 0 692.2C0 669 0 646 0 623C0 600 0 577 0 554C0 531 0 508 0 484.8C0 461.7 0 438.3 0 415.2C0 392 0 369 0 346C0 323 0 300 0 277C0 254 0 231 0 207.8C0 184.7 0 161.3 0 138.2C0 115 0 92 0 69C0 46 0 23 0 11.5L0 0Z" fill="#1f1f1f" stroke-linecap="round" stroke-linejoin="miter"></path></svg>