<svg id="visual" viewBox="0 0 300 900" width="300" height="900" xmlns="http://www.w3.org/2000/svg" xmlns:xlink="http://www.w3.org/1999/xlink" version="1.1"><path d="M71 0L66.5 11.5C62 23 53 46 58 69C63 92 82 115 78.3 138.2C74.7 161.3 48.3 184.7 41.2 207.8C34 231 46 254 45.7 277C45.3 300 32.7 323 35 346C37.3 369 54.7 392 63.2 415.2C71.7 438.3 71.3 461.7 64 484.8C56.7 508 42.3 531 46.7 554C51 577 74 600 76.8 623C79.7 646 62.3 669 50.8 692.2C39.3 715.3 33.7 738.7 30.5 761.8C27.3 785 26.7 808 38.7 831C50.7 854 75.3 877 87.7 888.5L100 900L0 900L0 888.5C0 877 0 854 0 831C0 808 0 785 0 761.8C0 738.7 0 715.3 0 692.2C0 669 0 646 0 623C0 600 0 577 0 554C0 531 0 508 0 484.8C0 461.7 0 438.3 0 415.2C0 392 0 369 0 346C0 323 0 300 0 277C0 254 0 231 0 207.8C0 184.7 0 161.3 0 138.2C0 115 0 92 0 69C0 46 0 23 0 11.5L0 0Z" fill="#1f1f1f" stroke-linecap="round" stroke-linejoin="miter"></path></svg>