<svg id="visual" viewBox="0 0 900 500" width="900" height="500" xmlns="http://www.w3.org/2000/svg" xmlns:xlink="http://www.w3.org/1999/xlink" version="1.1"><path d="M0 367L11.5 366.8C23 366.7 46 366.3 69 339.8C92 313.3 115 260.7 138.2 268C161.3 275.3 184.7 342.7 207.8 342.8C231 343 254 276 277 239.5C300 203 323 197 346 217.7C369 238.3 392 285.7 415.2 295.3C438.3 305 461.7 277 484.8 253.8C508 230.7 531 212.3 554 209.8C577 207.3 600 220.7 623 235.8C646 251 669 268 692.2 264.5C715.3 261 738.7 237 761.8 222C785 207 808 201 831 207.5C854 214 877 233 888.5 242.5L900 252L900 501L888.5 501C877 501 854 501 831 501C808 501 785 501 761.8 501C738.7 501 715.3 501 692.2 501C669 501 646 501 623 501C600 501 577 501 554 501C531 501 508 501 484.8 501C461.7 501 438.3 501 415.2 501C392 501 369 501 346 501C323 501 300 501 277 501C254 501 231 501 207.8 501C184.7 501 161.3 501 138.2 501C115 501 92 501 69 501C46 501 23 501 11.5 501L0 501Z" fill="#460d88" stroke-linecap="round" stroke-linejoin="miter"></path></svg>